<svg width="945" height="113" viewBox="0 0 945 113" fill="none" xmlns="http://www.w3.org/2000/svg">
<g clip-path="url(#clip0_215:45)">
<path d="M0 15.2683C0 1.53317 19.7302 -0.642889 22.7236 12.7621V12.7621C22.9073 13.5849 23 14.4253 23 15.2684V32C23 43.598 32.402 53 44 53H186.64C197.154 53 206.048 45.2241 207.452 34.804L209.652 18.4689C212.85 -5.26111 246.9 -6.00731 251.134 17.5599L254.395 35.713C256.192 45.7186 264.898 53 275.064 53H427.516C437.867 53 446.674 45.458 448.267 35.2305L450.948 18.01C454.631 -5.64756 488.686 -5.69733 492.438 17.9494L495.19 35.2911C496.808 45.491 505.603 53 515.93 53H667.57C677.897 53 686.692 45.491 688.31 35.2912L690.86 19.2191C694.618 -4.4627 728.741 -4.36299 732.36 19.3403L734.777 35.1698C736.343 45.4249 745.163 53 755.537 53H903C914.598 53 924 43.598 924 32V10.1124C924 9.37286 924.078 8.63542 924.233 7.91232V7.91232C926.872 -4.40328 945 -2.48277 945 10.1124V93.65C945 104.337 936.337 113 925.65 113H20.0659C8.98383 113 0 104.016 0 92.9341V15.2683Z" fill="white"/>
<path d="M237.397 24.4496L228.564 15.6162C228.37 15.421 228.14 15.266 227.886 15.1602C227.632 15.0545 227.36 15 227.085 15C226.81 15 226.538 15.0545 226.284 15.1602C226.03 15.266 225.799 15.421 225.606 15.6162C225.218 16.0066 225 16.5346 225 17.085C225 17.6354 225.218 18.1634 225.606 18.5537L232.981 25.9287L225.606 33.3037C225.218 33.6941 225 34.2221 225 34.7725C225 35.3229 225.218 35.8509 225.606 36.2412C225.8 36.4343 226.031 36.5871 226.285 36.6908C226.539 36.7944 226.811 36.847 227.085 36.8454C227.359 36.847 227.631 36.7944 227.885 36.6908C228.139 36.5871 228.369 36.4343 228.564 36.2412L237.397 27.4079C237.593 27.2142 237.748 26.9838 237.854 26.7299C237.959 26.4761 238.014 26.2038 238.014 25.9287C238.014 25.6537 237.959 25.3814 237.854 25.1275C237.748 24.8737 237.593 24.6433 237.397 24.4496V24.4496Z" fill="#FF7A00"/>
<path d="M478.397 24.4496L469.564 15.6162C469.37 15.421 469.14 15.266 468.886 15.1602C468.632 15.0545 468.36 15 468.085 15C467.81 15 467.538 15.0545 467.284 15.1602C467.03 15.266 466.799 15.421 466.606 15.6162C466.218 16.0066 466 16.5346 466 17.085C466 17.6354 466.218 18.1634 466.606 18.5537L473.981 25.9287L466.606 33.3037C466.218 33.6941 466 34.2221 466 34.7725C466 35.3229 466.218 35.8509 466.606 36.2412C466.8 36.4343 467.031 36.5871 467.285 36.6908C467.539 36.7944 467.811 36.847 468.085 36.8454C468.359 36.847 468.631 36.7944 468.885 36.6908C469.139 36.5871 469.369 36.4343 469.564 36.2412L478.397 27.4079C478.593 27.2142 478.748 26.9838 478.854 26.7299C478.959 26.4761 479.014 26.2038 479.014 25.9287C479.014 25.6537 478.959 25.3814 478.854 25.1275C478.748 24.8737 478.593 24.6433 478.397 24.4496V24.4496Z" fill="#FF7A00"/>
<path d="M717.397 24.4496L708.564 15.6162C708.37 15.421 708.14 15.266 707.886 15.1602C707.632 15.0545 707.36 15 707.085 15C706.81 15 706.538 15.0545 706.284 15.1602C706.03 15.266 705.799 15.421 705.606 15.6162C705.218 16.0066 705 16.5346 705 17.085C705 17.6354 705.218 18.1634 705.606 18.5537L712.981 25.9287L705.606 33.3037C705.218 33.6941 705 34.2221 705 34.7725C705 35.3229 705.218 35.8509 705.606 36.2412C705.8 36.4343 706.031 36.5871 706.285 36.6908C706.539 36.7944 706.811 36.847 707.085 36.8454C707.359 36.847 707.631 36.7944 707.885 36.6908C708.139 36.5871 708.369 36.4343 708.564 36.2412L717.397 27.4079C717.593 27.2142 717.748 26.9838 717.854 26.7299C717.959 26.4761 718.014 26.2038 718.014 25.9287C718.014 25.6537 717.959 25.3814 717.854 25.1275C717.748 24.8737 717.593 24.6433 717.397 24.4496Z" fill="#FF7A00"/>
</g>
<defs>
<clipPath id="clip0_215:45">
<rect width="945" height="113" fill="white"/>
</clipPath>
</defs>
</svg>
