<svg width="14" height="22" viewBox="0 0 14 22" fill="none" xmlns="http://www.w3.org/2000/svg">
<path d="M12.3975 9.44958L3.56415 0.616246C3.37048 0.420979 3.14006 0.26599 2.88619 0.160222C2.63231 0.0544542 2.36001 0 2.08498 0C1.80996 0 1.53766 0.0544542 1.28378 0.160222C1.02991 0.26599 0.799491 0.420979 0.605818 0.616246C0.217795 1.00658 0 1.53461 0 2.085C0 2.63538 0.217795 3.16341 0.605818 3.55375L7.98082 10.9287L0.605818 18.3037C0.217795 18.6941 0 19.2221 0 19.7725C0 20.3229 0.217795 20.8509 0.605818 21.2412C0.800484 21.4343 1.03135 21.5871 1.28518 21.6908C1.53901 21.7944 1.8108 21.847 2.08498 21.8454C2.35916 21.847 2.63096 21.7944 2.88479 21.6908C3.13862 21.5871 3.36948 21.4343 3.56415 21.2412L12.3975 12.4079C12.5928 12.2142 12.7477 11.9838 12.8535 11.7299C12.9593 11.4761 13.0137 11.2038 13.0137 10.9287C13.0137 10.6537 12.9593 10.3814 12.8535 10.1275C12.7477 9.87367 12.5928 9.64325 12.3975 9.44958Z" fill="#FF7A00"/>
</svg>
