<svg width="169" height="27" viewBox="0 0 169 27" fill="none" xmlns="http://www.w3.org/2000/svg">
<path d="M43.566 7.31V10.118H40.182V20H36.654V10.118H33.306V7.31H43.566ZM54.5193 14.834C54.5193 15.11 54.5013 15.386 54.4653 15.662H47.7873C47.8233 16.214 47.9733 16.628 48.2373 16.904C48.5133 17.168 48.8613 17.3 49.2813 17.3C49.8693 17.3 50.2893 17.036 50.5413 16.508H54.3033C54.1473 17.204 53.8413 17.828 53.3853 18.38C52.9413 18.92 52.3773 19.346 51.6933 19.658C51.0093 19.97 50.2533 20.126 49.4253 20.126C48.4293 20.126 47.5413 19.916 46.7613 19.496C45.9933 19.076 45.3873 18.476 44.9433 17.696C44.5113 16.916 44.2953 15.998 44.2953 14.942C44.2953 13.886 44.5113 12.974 44.9433 12.206C45.3753 11.426 45.9753 10.826 46.7433 10.406C47.5233 9.986 48.4173 9.776 49.4253 9.776C50.4213 9.776 51.3033 9.98 52.0713 10.388C52.8393 10.796 53.4393 11.384 53.8713 12.152C54.3033 12.908 54.5193 13.802 54.5193 14.834ZM50.9193 13.952C50.9193 13.52 50.7753 13.184 50.4873 12.944C50.1993 12.692 49.8393 12.566 49.4073 12.566C48.9753 12.566 48.6213 12.686 48.3453 12.926C48.0693 13.154 47.8893 13.496 47.8053 13.952H50.9193ZM55.3871 14.942C55.3871 13.898 55.5731 12.986 55.9451 12.206C56.3291 11.426 56.8451 10.826 57.4931 10.406C58.1531 9.986 58.8851 9.776 59.6891 9.776C60.3851 9.776 60.9851 9.914 61.4891 10.19C61.9931 10.466 62.3831 10.838 62.6591 11.306V9.902H66.1871V20H62.6591V18.596C62.3831 19.064 61.9871 19.436 61.4711 19.712C60.9671 19.988 60.3731 20.126 59.6891 20.126C58.8851 20.126 58.1531 19.916 57.4931 19.496C56.8451 19.076 56.3291 18.476 55.9451 17.696C55.5731 16.904 55.3871 15.986 55.3871 14.942ZM62.6591 14.942C62.6591 14.294 62.4791 13.784 62.1191 13.412C61.7711 13.04 61.3391 12.854 60.8231 12.854C60.2951 12.854 59.8571 13.04 59.5091 13.412C59.1611 13.772 58.9871 14.282 58.9871 14.942C58.9871 15.59 59.1611 16.106 59.5091 16.49C59.8571 16.862 60.2951 17.048 60.8231 17.048C61.3391 17.048 61.7711 16.862 62.1191 16.49C62.4791 16.118 62.6591 15.602 62.6591 14.942ZM81.3915 9.812C82.6635 9.812 83.6595 10.196 84.3795 10.964C85.1115 11.732 85.4775 12.782 85.4775 14.114V20H81.9495V14.582C81.9495 14.042 81.7995 13.622 81.4995 13.322C81.1995 13.022 80.7915 12.872 80.2755 12.872C79.7595 12.872 79.3515 13.022 79.0515 13.322C78.7515 13.622 78.6015 14.042 78.6015 14.582V20H75.0735V14.582C75.0735 14.042 74.9235 13.622 74.6235 13.322C74.3355 13.022 73.9335 12.872 73.4175 12.872C72.8895 12.872 72.4755 13.022 72.1755 13.322C71.8755 13.622 71.7255 14.042 71.7255 14.582V20H68.1975V9.902H71.7255V11.234C72.0375 10.802 72.4395 10.46 72.9315 10.208C73.4355 9.944 74.0115 9.812 74.6595 9.812C75.4035 9.812 76.0635 9.974 76.6395 10.298C77.2275 10.622 77.6895 11.078 78.0255 11.666C78.3855 11.114 78.8595 10.67 79.4475 10.334C80.0355 9.986 80.6835 9.812 81.3915 9.812ZM98.3617 20L94.3837 14.438V20H90.8557V7.31H94.3837V12.782L98.3257 7.31H102.394L97.7317 13.466L102.628 20H98.3617ZM103.34 14.942C103.34 13.898 103.526 12.986 103.898 12.206C104.282 11.426 104.798 10.826 105.446 10.406C106.106 9.986 106.838 9.776 107.642 9.776C108.338 9.776 108.938 9.914 109.442 10.19C109.946 10.466 110.336 10.838 110.612 11.306V9.902H114.14V20H110.612V18.596C110.336 19.064 109.94 19.436 109.424 19.712C108.92 19.988 108.326 20.126 107.642 20.126C106.838 20.126 106.106 19.916 105.446 19.496C104.798 19.076 104.282 18.476 103.898 17.696C103.526 16.904 103.34 15.986 103.34 14.942ZM110.612 14.942C110.612 14.294 110.432 13.784 110.072 13.412C109.724 13.04 109.292 12.854 108.776 12.854C108.248 12.854 107.81 13.04 107.462 13.412C107.114 13.772 106.94 14.282 106.94 14.942C106.94 15.59 107.114 16.106 107.462 16.49C107.81 16.862 108.248 17.048 108.776 17.048C109.292 17.048 109.724 16.862 110.072 16.49C110.432 16.118 110.612 15.602 110.612 14.942ZM122.757 9.812C123.921 9.812 124.845 10.202 125.529 10.982C126.213 11.75 126.555 12.794 126.555 14.114V20H123.027V14.582C123.027 14.006 122.877 13.556 122.577 13.232C122.277 12.896 121.875 12.728 121.371 12.728C120.843 12.728 120.429 12.896 120.129 13.232C119.829 13.556 119.679 14.006 119.679 14.582V20H116.151V9.902H119.679V11.342C119.991 10.886 120.411 10.52 120.939 10.244C121.467 9.956 122.073 9.812 122.757 9.812ZM127.914 14.942C127.914 13.898 128.1 12.986 128.472 12.206C128.856 11.426 129.372 10.826 130.02 10.406C130.68 9.986 131.412 9.776 132.216 9.776C132.912 9.776 133.512 9.914 134.016 10.19C134.52 10.466 134.91 10.838 135.186 11.306V9.902H138.714V20H135.186V18.596C134.91 19.064 134.514 19.436 133.998 19.712C133.494 19.988 132.9 20.126 132.216 20.126C131.412 20.126 130.68 19.916 130.02 19.496C129.372 19.076 128.856 18.476 128.472 17.696C128.1 16.904 127.914 15.986 127.914 14.942ZM135.186 14.942C135.186 14.294 135.006 13.784 134.646 13.412C134.298 13.04 133.866 12.854 133.35 12.854C132.822 12.854 132.384 13.04 132.036 13.412C131.688 13.772 131.514 14.282 131.514 14.942C131.514 15.59 131.688 16.106 132.036 16.49C132.384 16.862 132.822 17.048 133.35 17.048C133.866 17.048 134.298 16.862 134.646 16.49C135.006 16.118 135.186 15.602 135.186 14.942ZM147.043 20L144.253 15.86V20H140.725V6.68H144.253V13.862L147.043 9.902H151.273L147.295 14.978L151.345 20H147.043ZM151.803 14.942C151.803 13.898 151.989 12.986 152.361 12.206C152.745 11.426 153.261 10.826 153.909 10.406C154.569 9.986 155.301 9.776 156.105 9.776C156.801 9.776 157.401 9.914 157.905 10.19C158.409 10.466 158.799 10.838 159.075 11.306V9.902H162.603V20H159.075V18.596C158.799 19.064 158.403 19.436 157.887 19.712C157.383 19.988 156.789 20.126 156.105 20.126C155.301 20.126 154.569 19.916 153.909 19.496C153.261 19.076 152.745 18.476 152.361 17.696C151.989 16.904 151.803 15.986 151.803 14.942ZM159.075 14.942C159.075 14.294 158.895 13.784 158.535 13.412C158.187 13.04 157.755 12.854 157.239 12.854C156.711 12.854 156.273 13.04 155.925 13.412C155.577 13.772 155.403 14.282 155.403 14.942C155.403 15.59 155.577 16.106 155.925 16.49C156.273 16.862 156.711 17.048 157.239 17.048C157.755 17.048 158.187 16.862 158.535 16.49C158.895 16.118 159.075 15.602 159.075 14.942Z" fill="#FF7A00"/>
<path d="M19.0027 22.1893L1.0627 9.8143C-0.755304 8.5603 -0.137304 5.94928 2.1297 5.33528L21.1967 0.160282C21.6006 0.0145418 22.0334 -0.0327682 22.4593 0.0222817C22.8851 0.0773318 23.2917 0.233152 23.6453 0.476812C23.9988 0.720472 24.2892 1.04494 24.4922 1.42329C24.6952 1.80164 24.8051 2.22296 24.8127 2.65228L23.6827 20.2013C23.5487 22.2843 20.8207 23.4433 19.0027 22.1893Z" fill="#C7E410"/>
<path d="M13.3125 25.2443L2.74343 4.57534C2.50183 4.1025 2.39552 3.57211 2.43621 3.04268C2.4769 2.51325 2.66302 2.00534 2.97403 1.57497C3.28505 1.1446 3.70888 0.808478 4.19879 0.603678C4.6887 0.398878 5.22565 0.333358 5.75043 0.414348L25.3375 3.43734C25.7884 3.50695 26.2164 3.6826 26.5863 3.94985C26.9561 4.21711 27.2572 4.56833 27.4649 4.97464C27.6725 5.38095 27.7808 5.83074 27.7807 6.28704C27.7806 6.74333 27.6722 7.1931 27.4645 7.59934L18.4415 25.2453C18.1992 25.7168 17.8316 26.1124 17.3791 26.3885C16.9266 26.6647 16.4068 26.8107 15.8767 26.8106C15.3466 26.8105 14.8268 26.6643 14.3744 26.388C13.922 26.1116 13.5546 25.7159 13.3125 25.2443Z" fill="#FFC997"/>
<path d="M24.7647 3.34831L15.0007 1.84131L3.0127 5.09631L7.7977 14.4573L19.0027 22.1893C19.2499 22.358 19.5218 22.4872 19.8087 22.5723L24.0647 14.2493L24.7647 3.34831Z" fill="#FF7A00"/>
<path d="M166.27 6.53999C167.524 6.53999 168.54 5.52369 168.54 4.27C168.54 3.01632 167.524 2 166.27 2C165.016 2 164 3.01632 164 4.27C164 5.52369 165.016 6.53999 166.27 6.53999Z" fill="#C7E410"/>
</svg>
